<svg id="_" data-name="™" xmlns="http://www.w3.org/2000/svg" viewBox="0 0 756 149.08"><defs><style>.cls-1{fill:#0a2240;}.cls-2{fill:#007f6e;}</style></defs><path class="cls-1" d="M223.94,99.65c-2.7,4.67-6.39,7.5-14.25,7.86l-13.88.74c-6,.37-8.23-2.09-8.23-6.39V46.35c0-4.54,2.71-6.14,8.11-6.87V36H164.87v3.44c5.28.73,8.1,2.33,8.1,6.87v55.51c0,4.67-2.82,6.27-8.1,7v3.44h61.4a24.49,24.49,0,0,1,1.23-9.09l2.33-7.61h-3.44Z"/><path class="cls-1" d="M260.41,60c8,0,11.18,5.89,11.18,12.4,0,6-2.83,8-13.39,8.6l-7.37.24c-2.82.12-4.05-.86-4.05-4.79,0-7.37,3.93-16.45,13.63-16.45m7.74,45.31c-11.42,0-20.63-7.37-20.63-16.45,0-2.71.86-3.81,3.19-3.93l10.44-.62c15.1-.73,22.72-3,22.72-12,0-9.83-8.72-16.46-21.37-16.46-15.35,0-29.6,9.82-29.6,28.74,0,18.3,13.76,28.49,29.11,28.49,13.38,0,21.61-7.74,23.95-12.16l-2.58-2.21c-4.3,5.28-10.2,6.63-15.23,6.63"/><path class="cls-1" d="M448.39,102.48v-26c0-15.84-9-20.75-18.17-20.75-10.07,0-15,5.65-17.2,8.1-1.59,1.84-3.31.62-3.31-3.93,0-3-1.72-4.42-4.92-3.8L389,59.25v3.19c6-.49,7.86,1.23,7.86,6.88v33c0,4.18-3.16,6.65-8.54,6.65-4.95,0-7.91-2.47-7.91-6.65V76.69c0-16.09-8.23-21-17.2-21-8.59,0-12.89,4.66-16.08,8.22-1.6,2.09-3.44,1.36-4.79-1-3.32-5.52-8.85-7.24-14-7.24-9.21,0-13.63,5.65-15.84,8.1-1.59,1.84-3.31.49-3.31-3.93,0-3-1.72-4.42-4.92-3.8l-15.84,3.19v3.31c6-.61,7.86,1.23,7.86,6.76v32.3c0,5.16-2.09,6.75-7.86,7.37v3.31h28.49V109c-5.65-.62-7.73-2.21-7.73-7.37V79.27c0-9.21,4.42-15.85,11.79-15.85s10.93,6.64,10.93,15.85v22.35c0,5.16-2.09,6.75-7.74,7.37v3.31h28.25V109c-5.53-.62-7.62-2.21-7.62-7.37V79.27c0-9.21,4.42-15.85,11.79-15.85s10.93,6.64,10.93,15.85V102.6c0,7.25,4.23,9.05,10,9.69,3.36.37,40.12,0,40.12,0V109c-5.78-.62-7.86-2.21-7.86-7.37V79.27c0-9.09,4.91-15.85,13.14-15.85s12.65,6.76,12.65,15.85V102.6c0,7.25,4.17,10.44,9.82,10.44,3.56,0,7.37-1.23,9-4.05v-1.84c-3.56,1-5.9-.37-5.9-4.67"/><path class="cls-1" d="M494.81,91.79a13.72,13.72,0,0,1-14.12,14c-6.63,0-9.58-4.17-9.58-9,0-5.16,3.44-11.42,18.79-13,4.05-.37,4.91,1.11,4.91,3.93Zm12.9,10.69V77.3c0-15.72-6-21.49-20.51-21.49-12.77,0-25.91,4-25.91,13.51,0,3.68,2.08,6.38,6.5,6.38,12,0,1.35-16,16-16,7.86,0,11.05,5,11.05,13.88v2.21c0,3-1,3.81-3.8,4.17-25.3,3.32-33.29,9.71-33.29,19.53,0,9.58,7.74,13.51,16.09,13.51A25.42,25.42,0,0,0,493,104.2c1-1.35,2-1.11,2,.24.37,5,3.81,8.6,9.71,8.6,3.56,0,7-1.47,8.35-4.3v-2c-3.32,1.22-5.28,0-5.28-4.3"/><path class="cls-1" d="M532.76,53.6l.13-8.11a1.78,1.78,0,0,0-2-1.84h-1.47A2.18,2.18,0,0,0,527.24,45C523.43,51.63,519,55.69,511,58.27v3.07h5.65c2.21,0,3.19.73,3.19,4.29V97.2c0,10.68,6.14,15.72,15.6,15.72,5.4,0,9.21-1.72,11.66-3.93,1-.74.86-2.09-.73-3.69a9.66,9.66,0,0,1-6.51,2.34c-6,0-7.13-4.55-7.13-11.67V65.88c0-3.56,1-4.54,6.64-4.3l9,.49V56.91h-9c-5.65,0-6.64-.73-6.64-3.31"/><path class="cls-1" d="M611.49,102.48V60.11c0-3.2-1.85-4.67-5-4l-15.72,3.19v3.19c6-.24,7.86,1.35,7.86,6.88v20c0,9.21-4.91,16-13.14,16s-12.65-6.75-12.65-16V60.11c0-3.2-1.72-4.67-4.91-4l-15.84,3.19v3.19c6-.24,7.85,1.35,7.85,6.88V92c0,16.09,8.85,21,18.18,21,10.07,0,15.23-5.77,17.56-8.47.62-.74,1.11-1.11,1.72-1.11.86,0,1.35.74,1.48,1.84.61,4.06,3.44,7.74,9.58,7.74,3.56,0,7.36-1.23,9-4.05v-1.84c-3.56.85-5.89-.37-5.89-4.67"/><path class="cls-1" d="M660.4,55.69c-8,0-12.77,5.16-15.1,7.73-1.48,1.6-3.07,1.23-3.07-.73V59.86c0-3-1.72-4.42-4.92-3.81l-15.84,3.2v3.19c6-.49,7.86,1.23,7.86,6.88v32.3c0,5.16-2.09,6.75-7.86,7.37v3.31h29.11V109c-6.27-.62-8.35-2.21-8.35-7.37V84.92c0-15.36,5.15-22.11,11.3-22.11,8.22,0,1.71,12,11.05,12,5,0,8-3.57,8-8.36,0-5.52-4-10.8-12.16-10.8"/><path class="cls-1" d="M700.61,60c8,0,11.17,5.9,11.17,12.41,0,6-2.82,8-13.39,8.6l-7.36.24c-2.83.12-4.06-.86-4.06-4.79C687,69.07,690.9,60,700.61,60m23,38.69c-4.3,5.28-10.19,6.63-15.23,6.63-11.42,0-20.63-7.37-20.63-16.45,0-2.71.86-3.81,3.19-3.93l10.44-.62c15.11-.74,22.72-3,22.72-12,0-9.83-8.72-16.46-21.37-16.46-15.35,0-29.59,9.82-29.59,28.74,0,18.3,13.75,28.49,29.1,28.49,13.39,0,21.62-7.74,23.95-12.16Z"/><path class="cls-2" d="M118.1,116.91a30,30,0,0,1-7.11.75,27.46,27.46,0,0,1-13.34-3.08,31.47,31.47,0,0,0-15.25-3.51,31.54,31.54,0,0,0-15.26,3.51,27.42,27.42,0,0,1-13.33,3.08,31.29,31.29,0,0,1-6.55-.62A55.71,55.71,0,0,1,34,100.83a38.36,38.36,0,0,1,4.58,1.87,31.66,31.66,0,0,0,15.26,3.51,31.58,31.58,0,0,0,15.25-3.51A27.32,27.32,0,0,1,82.4,99.62a27.31,27.31,0,0,1,13.33,3.08A31.66,31.66,0,0,0,111,106.21a31.66,31.66,0,0,0,15.26-3.51,36.19,36.19,0,0,1,5.07-2,55.69,55.69,0,0,1-13.22,16.23m-63.44,5.33a31.37,31.37,0,0,0,14.4-3.49,27.32,27.32,0,0,1,13.34-3.08,27.31,27.31,0,0,1,13.33,3.08,31.51,31.51,0,0,0,14.81,3.5,55.19,55.19,0,0,1-55.88,0M76.76,19.55,75.2,21.1A38.34,38.34,0,0,0,63.91,48.37a39.58,39.58,0,0,0,.6,6.82,34.23,34.23,0,0,0-14.14-3H37.72v2.23a44.94,44.94,0,0,0,32.07,43c-.92.37-1.79.77-2.65,1.17a27.42,27.42,0,0,1-13.33,3.08,27.42,27.42,0,0,1-13.33-3.08,33.15,33.15,0,0,0-9-3A55.29,55.29,0,0,1,76.76,19.55m3.58,67V94.7a40.45,40.45,0,0,1-38.1-38.1h8.13a30,30,0,0,1,30,30m4.46,0v0A30,30,0,0,1,114.72,56.6h8.18A40.45,40.45,0,0,1,84.8,94.7ZM68.5,48.37a33.73,33.73,0,0,1,10-24l4.16-4.16,4.16,4.16a34,34,0,0,1,8.47,33.87A34.52,34.52,0,0,0,82.56,74.38,34.53,34.53,0,0,0,70,58.3a34,34,0,0,1-1.49-9.93m69.4,26.17a55,55,0,0,1-4.1,20.89,32.92,32.92,0,0,0-9.48,3.1A27.42,27.42,0,0,1,111,101.61a27.46,27.46,0,0,1-13.34-3.08c-.81-.38-1.64-.76-2.5-1.12a44.92,44.92,0,0,0,32.27-43V52.14h-12.7a34.13,34.13,0,0,0-14,3A38.54,38.54,0,0,0,90,21.1l-1.56-1.55a55.37,55.37,0,0,1,49.44,55M82.61,14.65h0a59.89,59.89,0,1,0,59.9,59.89A60,60,0,0,0,82.6,14.65"/><path class="cls-1" d="M726.15,51.09v1.45h2v5h1.68v-5h2V51.09Zm11.32,0-1.2,4.64-1.35-4.64h-2.35v6.42h1.61V53h0l1.19,4.52H737L738.11,53h0v4.49h1.61V51.09Z"/></svg>